Coordinates
version=1
nRows=124
nColumns=11
inDegrees=no

Units are S.I. units (second, meters, Newtons, ...)
If the header above contains a line with 'inDegrees', this indicates whether rotational values are in degrees (yes) or radians (no).

endheader
time	pelvis_tilt	pelvis_tx	pelvis_ty	hip_flexion_r	knee_angle_r	ankle_angle_r	hip_flexion_l	knee_angle_l	ankle_angle_l	lumbar_extension
105.01	-0.0274174	-0.19354	0.934119	-0.00437023	-0.233603	0.267697	0.542051	-0.837261	-0.00133163	0
105.02	-0.0262127	-0.194601	0.932581	-0.0249773	-0.225829	0.280567	0.541317	-0.773237	0.00865194	0
105.03	-0.027642	-0.19571	0.930542	-0.040641	-0.220505	0.290001	0.541674	-0.705354	0.0152133	0
105.04	-0.0295602	-0.19689	0.928427	-0.0551159	-0.217022	0.299676	0.538944	-0.629993	0.0162085	0
105.05	-0.0305989	-0.197517	0.926257	-0.0711829	-0.213498	0.310304	0.5322	-0.550148	0.0146878	0
105.06	-0.0309248	-0.197641	0.923922	-0.0884734	-0.209899	0.31945	0.521784	-0.466568	0.0125486	0
105.07	-0.0317849	-0.197702	0.921276	-0.105121	-0.20582	0.330938	0.510413	-0.383537	0.0131808	0
105.08	-0.0322556	-0.19758	0.918526	-0.121945	-0.203366	0.344349	0.49639	-0.299791	0.0172531	0
105.09	-0.0332864	-0.197107	0.915628	-0.137088	-0.203369	0.355516	0.484911	-0.22259	0.0252892	0
105.1	-0.0324727	-0.196202	0.9128	-0.156353	-0.201159	0.363798	0.474446	-0.15669	0.0413134	0
105.11	-0.0152386	-0.193439	0.911177	-0.197681	-0.199919	0.37339	0.442685	-0.0967358	0.0657974	0
105.12	-0.0130933	-0.192289	0.908594	-0.217713	-0.199439	0.378969	0.434505	-0.0513074	0.0884006	0
105.13	-0.0119609	-0.191448	0.906196	-0.234159	-0.203083	0.382291	0.433375	-0.0268231	0.10097	0
105.14	-0.0111931	-0.190526	0.903897	-0.249551	-0.207256	0.382468	0.433511	-0.0156985	0.108155	0
105.15	-0.010658	-0.189729	0.901985	-0.262072	-0.215164	0.379255	0.434915	-0.0180554	0.111402	0
105.16	-0.0111044	-0.189248	0.900575	-0.270117	-0.228856	0.373222	0.441691	-0.0395379	0.101424	0
105.17	-0.0114418	-0.188479	0.899332	-0.276755	-0.246323	0.367801	0.450054	-0.0738194	0.0822219	0
105.18	-0.0113601	-0.187469	0.898291	-0.283802	-0.263482	0.358368	0.458123	-0.111333	0.0558227	0
105.19	-0.0105054	-0.186206	0.897548	-0.291387	-0.281307	0.345777	0.464448	-0.146911	0.0284314	0
105.2	-0.00570124	-0.184332	0.897263	-0.301015	-0.303968	0.329147	0.462161	-0.173637	0.00316908	0
105.21	-0.00952744	-0.18343	0.896791	-0.297482	-0.330359	0.30425	0.465189	-0.19001	-0.020984	0
105.22	-0.00820149	-0.181531	0.897147	-0.297445	-0.361672	0.269436	0.464503	-0.215709	-0.0393738	0
105.23	-0.0064768	-0.179613	0.89811	-0.293801	-0.397846	0.22529	0.466543	-0.251375	-0.0491487	0
105.24	-0.00453868	-0.177616	0.899531	-0.286068	-0.438655	0.17427	0.467773	-0.288718	-0.0503964	0
105.25	-0.00114323	-0.175513	0.901262	-0.272364	-0.489426	0.118271	0.464372	-0.32139	-0.0459383	0
105.26	-0.00110387	-0.174128	0.902948	-0.24872	-0.546852	0.0637936	0.461878	-0.347741	-0.0335541	0
105.27	-0.0011142	-0.173309	0.904881	-0.218839	-0.611146	-0.00162455	0.457618	-0.369592	-0.0117607	0
105.28	-0.00126139	-0.17245	0.906943	-0.186853	-0.677557	-0.0526963	0.449634	-0.38562	0.0101651	0
105.29	-5.35105e-06	-0.171525	0.909065	-0.153827	-0.74519	-0.105675	0.437293	-0.396589	0.0281172	0
105.3	0.00167697	-0.170841	0.910999	-0.118918	-0.812168	-0.16399	0.423613	-0.405583	0.0447028	0
105.31	0.00163127	-0.170791	0.912567	-0.0802898	-0.87631	-0.220531	0.413023	-0.415702	0.0648175	0
105.32	-0.0117337	-0.172789	0.913354	-0.0224462	-0.938753	-0.268538	0.418263	-0.42192	0.0796383	0
105.33	-0.00923453	-0.172543	0.91561	0.00899866	-0.98886	-0.290253	0.398441	-0.420869	0.0933443	0
105.34	0.00499956	-0.170437	0.918985	0.0212266	-1.03068	-0.277368	0.361222	-0.415986	0.105101	0
105.35	0.00517629	-0.170964	0.921191	0.05808	-1.07958	-0.238924	0.343733	-0.412011	0.11728	0
105.36	0.00639482	-0.171226	0.923936	0.0904021	-1.11782	-0.19516	0.322218	-0.404101	0.127792	0
105.37	0.00767422	-0.171323	0.926768	0.120927	-1.14666	-0.155996	0.298447	-0.391432	0.134609	0
105.38	0.00825429	-0.171914	0.929275	0.152758	-1.16987	-0.122509	0.275919	-0.377912	0.140795	0
105.39	0.00788467	-0.173079	0.931503	0.186584	-1.1884	-0.0969723	0.256296	-0.367449	0.1474	0
105.4	0.0070437	-0.174386	0.933799	0.220305	-1.20029	-0.0773614	0.236409	-0.356189	0.152076	0
105.41	-0.00390786	-0.177458	0.935364	0.267474	-1.20796	-0.0603535	0.225494	-0.334115	0.150849	0
105.42	-0.00328603	-0.178871	0.937642	0.293359	-1.20353	-0.0457079	0.200021	-0.314635	0.153864	0
105.43	-0.00352259	-0.179477	0.939377	0.320808	-1.19417	-0.0328441	0.177891	-0.296709	0.157184	0
105.44	0.0111453	-0.178499	0.942094	0.322321	-1.17422	-0.019287	0.136591	-0.284437	0.163548	0
105.45	0.0132032	-0.179495	0.943437	0.342967	-1.15512	-0.00189299	0.110432	-0.266933	0.166516	0
105.46	0.0134656	-0.180719	0.944408	0.363686	-1.12941	0.00746333	0.0866137	-0.249047	0.168823	0
105.47	0.0144461	-0.181632	0.945279	0.380022	-1.09616	0.0154445	0.0624049	-0.232433	0.17793	0
105.48	0.0121613	-0.183492	0.945319	0.401186	-1.06174	0.0252695	0.0467792	-0.223083	0.182261	0
105.49	-0.00322585	-0.187253	0.944231	0.439997	-1.02385	0.0379442	0.0483381	-0.210999	0.182814	0
105.5	-0.00436966	-0.188557	0.943946	0.45316	-0.975977	0.0494674	0.0315616	-0.203587	0.192251	0
105.51	-0.0052831	-0.190007	0.943245	0.462825	-0.922189	0.0612251	0.0138716	-0.195058	0.20286	0
105.52	-0.00493705	-0.191171	0.942517	0.467347	-0.862338	0.0681869	-0.00667138	-0.184838	0.211698	0
105.53	-0.00504235	-0.192093	0.941465	0.46909	-0.79583	0.0688369	-0.0264229	-0.174524	0.220026	0
105.54	0.00995367	-0.189778	0.940994	0.447395	-0.722908	0.0623821	-0.0652034	-0.16626	0.233792	0
105.55	-0.00418749	-0.193219	0.938463	0.46067	-0.645186	0.0474539	-0.0691995	-0.15185	0.239791	0
105.56	-0.00646872	-0.194159	0.936227	0.459372	-0.570299	0.0271967	-0.0834178	-0.148519	0.251468	0
105.57	-0.00719881	-0.194389	0.934107	0.453089	-0.492374	0.00914063	-0.100734	-0.142984	0.261721	0
105.58	0.0100528	-0.191374	0.932935	0.420856	-0.411379	-0.000669334	-0.139419	-0.14274	0.278178	0
105.59	0.0114009	-0.19116	0.930427	0.40804	-0.329782	0.00125038	-0.159567	-0.138308	0.290567	0
105.6	-0.00633194	-0.194538	0.926363	0.420815	-0.254879	0.00536845	-0.157822	-0.128381	0.298986	0
105.61	-0.00649025	-0.194424	0.923247	0.41415	-0.189346	0.0101414	-0.177297	-0.121788	0.311304	0
105.62	-0.00519155	-0.193675	0.920224	0.40737	-0.130643	0.0241897	-0.198256	-0.116855	0.321265	0
105.63	-0.00466574	-0.192943	0.91722	0.403834	-0.0802087	0.0369836	-0.215764	-0.116955	0.331626	0
105.64	-0.00623355	-0.192263	0.914173	0.405449	-0.0384059	0.041104	-0.228876	-0.118791	0.340281	0
105.65	-0.00652794	-0.191995	0.911389	0.405803	-0.00592161	0.0437391	-0.244082	-0.122293	0.3468	0
105.66	0.0136986	-0.188713	0.909981	0.38358	0.00973378	0.0566628	-0.284285	-0.127831	0.360254	0
105.67	-0.00468241	-0.191364	0.906363	0.417379	0.00232431	0.0700043	-0.273954	-0.132451	0.362963	0
105.68	0.0107863	-0.188969	0.905262	0.411366	-0.0203663	0.0828914	-0.301972	-0.148682	0.370284	0
105.69	0.0101333	-0.188702	0.903282	0.42555	-0.0492392	0.0815174	-0.310712	-0.161187	0.370964	0
105.7	0.00812579	-0.188712	0.901482	0.440941	-0.0836189	0.0692907	-0.314718	-0.179362	0.370049	0
105.71	0.00700153	-0.188228	0.900127	0.453565	-0.120889	0.052275	-0.318785	-0.199938	0.366017	0
105.72	0.00635773	-0.18739	0.898997	0.462593	-0.157556	0.0330835	-0.323276	-0.220875	0.360008	0
105.73	0.00642176	-0.186178	0.898005	0.467644	-0.191243	0.0147769	-0.328557	-0.241643	0.349873	0
105.74	0.00751916	-0.184521	0.897351	0.470325	-0.223487	-0.00115363	-0.334752	-0.261722	0.333128	0
105.75	0.00772585	-0.182867	0.897008	0.474093	-0.255501	-0.0196368	-0.336101	-0.288653	0.310866	0
105.76	-0.0049991	-0.182463	0.896129	0.493998	-0.287442	-0.0348078	-0.320034	-0.315226	0.283583	0
105.77	0.0138482	-0.178505	0.897305	0.474252	-0.324	-0.0400765	-0.339371	-0.351507	0.257941	0
105.78	0.0167715	-0.176126	0.897945	0.475199	-0.362439	-0.0314375	-0.333479	-0.392497	0.217799	0
105.79	0.0185204	-0.174332	0.899054	0.473894	-0.395439	-0.0120283	-0.320625	-0.439749	0.16953	0
105.8	0.0192511	-0.172846	0.900548	0.471231	-0.42317	0.00887091	-0.300858	-0.494118	0.114441	0
105.81	0.0194346	-0.171822	0.902054	0.465537	-0.443027	0.0267138	-0.274328	-0.556004	0.0526964	0
105.82	0.0194394	-0.170983	0.903647	0.455289	-0.454465	0.0430091	-0.244105	-0.620155	-0.00829034	0
105.83	0.0206715	-0.170116	0.905427	0.440858	-0.46262	0.0616049	-0.212803	-0.684815	-0.0720692	0
105.84	0.0219804	-0.16934	0.907365	0.425644	-0.469618	0.0811974	-0.178673	-0.751326	-0.139559	0
105.85	0.0220162	-0.168863	0.909062	0.411245	-0.475193	0.102011	-0.140797	-0.817972	-0.207528	0
105.86	0.0214494	-0.168828	0.910768	0.396934	-0.478734	0.122348	-0.103435	-0.875874	-0.274653	0
105.87	0.0202934	-0.169163	0.912458	0.383124	-0.480804	0.137423	-0.0655101	-0.928026	-0.326103	0
105.88	0.00651934	-0.171455	0.913576	0.383639	-0.476369	0.146206	-0.007587	-0.98459	-0.341796	0
105.89	0.00803082	-0.171577	0.916178	0.359952	-0.465156	0.158857	0.0253038	-1.03205	-0.320263	0
105.9	0.0211393	-0.169818	0.919778	0.321254	-0.454794	0.169365	0.0383548	-1.06829	-0.28006	0
105.91	0.0228476	-0.170103	0.922406	0.297126	-0.441807	0.175967	0.0689143	-1.10314	-0.232015	0
105.92	0.0236364	-0.170722	0.924831	0.274965	-0.429209	0.183386	0.101514	-1.13181	-0.191743	0
105.93	0.0226636	-0.171996	0.927308	0.255204	-0.416447	0.188675	0.135971	-1.15352	-0.159315	0
105.94	0.0200561	-0.174058	0.929611	0.237121	-0.402025	0.191804	0.17213	-1.1694	-0.132756	0
105.95	0.00715947	-0.177739	0.931103	0.230122	-0.381702	0.194692	0.223357	-1.18253	-0.111062	0
105.96	0.0074995	-0.179056	0.933336	0.205989	-0.363534	0.198011	0.252133	-1.18293	-0.0924558	0
105.97	0.00666207	-0.180604	0.935197	0.183972	-0.346698	0.200011	0.28057	-1.17732	-0.0768847	0
105.98	0.0214501	-0.179642	0.937946	0.140509	-0.330647	0.20426	0.281982	-1.16004	-0.0652191	0
105.99	0.00738808	-0.183852	0.93834	0.134461	-0.308817	0.206437	0.328949	-1.14945	-0.0541707	0
106	0.0192776	-0.183175	0.94028	0.0977286	-0.296457	0.213545	0.333735	-1.12399	-0.0394254	0
106.01	0.0209614	-0.183814	0.941486	0.0713275	-0.277413	0.213215	0.350715	-1.09487	-0.0233623	0
106.02	0.0211575	-0.185358	0.942111	0.0478261	-0.258375	0.211617	0.369142	-1.06206	-0.0127343	0
106.03	0.0170567	-0.187893	0.941777	0.034402	-0.248056	0.218163	0.393438	-1.02818	-0.00336419	0
106.04	-0.00146949	-0.192065	0.940169	0.0404629	-0.236505	0.222655	0.437362	-0.99199	0.00529361	0
106.05	-0.0041162	-0.194046	0.939554	0.02613	-0.229044	0.229584	0.454603	-0.947952	0.0127076	0
106.06	-0.00678975	-0.196051	0.938564	0.013262	-0.224325	0.237504	0.469808	-0.900195	0.0194159	0
106.07	-0.0081896	-0.198099	0.937334	-0.000442593	-0.221522	0.248394	0.480209	-0.846849	0.0247473	0
106.08	-0.010048	-0.199493	0.936098	-0.0147517	-0.217242	0.25922	0.487511	-0.787036	0.0266771	0
106.09	-0.01126	-0.200491	0.934739	-0.0300865	-0.213681	0.270251	0.491598	-0.723779	0.0284978	0
106.1	-0.0128769	-0.201511	0.933058	-0.0455129	-0.209068	0.280574	0.494009	-0.656107	0.0317901	0
106.11	-0.0144981	-0.202393	0.930916	-0.061144	-0.204584	0.293053	0.494505	-0.586025	0.0328442	0
106.12	-0.0154577	-0.20289	0.928573	-0.0769067	-0.201543	0.303787	0.489884	-0.508979	0.0314333	0
106.13	-0.0158212	-0.203218	0.926301	-0.0931258	-0.199409	0.312902	0.481376	-0.427302	0.031054	0
106.14	-0.0164408	-0.203421	0.92378	-0.109934	-0.196493	0.324285	0.472361	-0.346092	0.0343871	0
106.15	-0.016548	-0.202989	0.921138	-0.129235	-0.191287	0.336944	0.461946	-0.267644	0.0360748	0
106.16	-0.0167603	-0.202612	0.918461	-0.147335	-0.187554	0.348712	0.453446	-0.197054	0.0424416	0
106.17	0.00502301	-0.198549	0.917113	-0.192946	-0.185749	0.361103	0.420376	-0.136605	0.0564352	0
106.18	-0.0156248	-0.201094	0.912927	-0.18659	-0.17714	0.361887	0.444515	-0.0870284	0.07045	0
106.19	-0.0164645	-0.200878	0.910222	-0.200582	-0.180082	0.366707	0.445954	-0.0512552	0.0749994	0
106.2	0.00153295	-0.198155	0.908947	-0.238958	-0.183392	0.373622	0.424036	-0.0272417	0.0891596	0
106.21	0.0033862	-0.197298	0.906581	-0.255755	-0.187577	0.377483	0.422937	-0.0128511	0.0993967	0
106.22	0.00461842	-0.1963	0.904435	-0.269623	-0.197268	0.381079	0.424729	-0.0145763	0.103884	0
106.23	0.0048415	-0.195534	0.902463	-0.281045	-0.208756	0.382682	0.430405	-0.031869	0.104889	0
106.24	0.0036743	-0.194879	0.900726	-0.289529	-0.222317	0.380125	0.440065	-0.0613511	0.0896584	0
